# xmcd
#
# Track frame offsets:
#	150
#	14787
#	21362
#	34354
#	40152
#	59997
#	71408
#	82777
#	95061
#	108396
#	123931
#	141698
#	155240
#	172182
#	176173
#
# Disc length: 2523 seconds
#
# Revision: 1
# Processed by: cddbd v1.5.2PL0 Copyright (c) Steve Scherf et al.
# Submitted via: EZCDAudioConverter 3.1.4.1
#
DISCID=e709d90f
DTITLE=David Grisman and Del McCoury - Del and Dawg Live!
DYEAR=2016
DGENRE=Country
TTITLE0=Feast Here Tonight
TTITLE1=Intros
TTITLE2=Shackles and Chains
TTITLE3=Meeting Up
TTITLE4=East Virginia Blues
TTITLE5=Bluegrass Rhythm
TTITLE6=G-Run Blues
TTITLE7=Del and Big Mon
TTITLE8=Dark Hollow
TTITLE9=Toy Heart
TTITLE10=Remembering Brad
TTITLE11=Bill Keith Medley: Salt Creek - Devil's Dream - Shenandoah Breakdown
TTITLE12=Snow Dove
TTITLE13=The Good Old 1950s
TTITLE14=Country Boy Rock and Roll
EXTD=
EXTT0=
EXTT1=
EXTT2=
EXTT3=
EXTT4=
EXTT5=
EXTT6=
EXTT7=
EXTT8=
EXTT9=
EXTT10=
EXTT11=
EXTT12=
EXTT13=
EXTT14=
PLAYORDER=
